<?xml version="1.0" standalone="no"?>
<!DOCTYPE svg PUBLIC "-//W3C//DTD SVG 20010904//EN"
 "http://www.w3.org/TR/2001/REC-SVG-20010904/DTD/svg10.dtd">
<svg version="1.0" xmlns="http://www.w3.org/2000/svg"
 width="390.000000pt" height="844.000000pt" viewBox="0 0 390.000000 844.000000"
 preserveAspectRatio="xMidYMid meet">

<g transform="translate(0.000000,844.000000) scale(0.100000,-0.100000)"
fill="#000000" stroke="none">
<path d="M0 4220 l0 -4220 1950 0 1950 0 0 4220 0 4220 -1950 0 -1950 0 0
-4220z m1850 635 c-7 -8 -19 -15 -27 -15 -31 0 -142 -44 -203 -80 -118 -69
-226 -196 -268 -312 -9 -26 -23 -48 -30 -48 -18 0 -9 26 36 115 50 96 181 227
279 278 55 29 172 69 222 76 2 1 -2 -6 -9 -14z m695 -479 c45 -10 50 -14 47
-36 -4 -42 -74 -132 -138 -181 -74 -55 -163 -88 -259 -95 l-70 -5 75 24 c99
31 141 50 195 87 40 28 95 101 95 127 0 20 -100 36 -189 30 -89 -6 -190 -36
-258 -78 l-35 -22 -25 25 -24 25 69 36 c102 54 203 76 347 75 66 0 143 -5 170
-12z m-1210 -371 c49 -146 134 -260 256 -341 79 -52 186 -93 266 -101 63 -7
81 -23 26 -23 -140 0 -345 109 -449 237 -51 64 -115 192 -133 265 -17 70 -25
191 -15 224 6 22 9 4 15 -76 5 -72 16 -131 34 -185z m579 118 c-16 -30 -24
-62 -24 -94 0 -42 4 -51 37 -81 114 -103 123 -120 82 -172 -16 -21 -24 -24
-35 -15 -11 9 -11 15 2 35 22 33 14 46 -55 100 -68 52 -91 97 -91 172 0 36 7
60 31 96 l30 48 24 -22 23 -22 -24 -45z m204 -72 c9 -6 45 -22 78 -36 101 -44
162 -119 179 -222 7 -42 6 -43 -22 -43 -47 0 -146 29 -185 55 -39 26 -82 77
-92 111 -5 15 5 10 37 -20 49 -48 103 -76 158 -83 34 -5 39 -3 39 15 0 36 -63
115 -125 157 -33 22 -71 48 -85 57 -26 18 -12 25 18 9z m-183 -332 c4 -5 0
-18 -9 -28 -20 -22 -20 -60 0 -89 22 -31 0 -28 -25 4 -25 32 -26 55 -6 94 16
31 29 37 40 19z"/>
</g>
</svg>
